<svg id="Layer_1" enable-background="new 0 0 512 512" viewBox="0 0 512 512" xmlns="http://www.w3.org/2000/svg"><g><path d="m400.541 325.977c8.698-4.725 16.694-10.872 23.713-18.339 33.703-35.854 33.703-92.027 0-127.881-17.931-19.077-42.216-29.583-68.384-29.583-5.092 0-10.112.403-15.029 1.185v-61.359c0-8.284-6.729-15-15.029-15h-43.96c-5.184-19.121-22.709-33.232-43.484-33.232h-8.418c-1.675-23.311-21.214-41.768-44.99-41.768s-43.314 18.457-44.99 41.768h-8.418c-20.774 0-38.3 14.111-43.484 33.232h-43.961c-8.3 0-15.029 6.716-15.029 15v101.553c-17.962 18.052-29.078 42.899-29.078 70.29s11.116 52.238 29.079 70.29v95.751c0 8.284 6.729 15 15.029 15h159.04c-2.226 10.46-3.407 21.3-3.407 32.412v21.704c0 8.284 6.729 15 15.029 15h282.201c8.3 0 15.029-6.716 15.029-15v-21.704c0-70.436-47.069-130.095-111.459-149.319zm1.792-125.695c22.883 24.345 22.883 62.485 0 86.83-12.189 12.967-28.689 20.108-46.462 20.108s-34.274-7.141-46.462-20.107c-22.882-24.345-22.882-62.485 0-86.83 12.189-12.967 28.689-20.108 46.462-20.108s34.273 7.14 46.462 20.107zm-285.772-113.552c0-8.25 6.725-14.962 14.991-14.962h23.331c8.3 0 15.029-6.716 15.029-15v-11.748c0-8.282 6.751-15.02 15.048-15.02 8.298 0 15.049 6.738 15.049 15.02v11.749c0 8.284 6.729 15 15.029 15h23.331c8.266 0 14.991 6.712 14.991 14.962v15.014h-136.799zm-86.503 175.113c0-38.489 31.373-69.802 69.937-69.802 38.563 0 69.936 31.313 69.936 69.802s-31.373 69.802-69.936 69.802c-38.564 0-69.937-31.313-69.937-69.802zm29.078 151.041v-59.958c12.481 5.599 26.311 8.718 40.858 8.718 55.137 0 99.994-44.771 99.994-99.802s-44.857-99.802-99.994-99.802c-14.547 0-28.377 3.119-40.858 8.718v-65.758h27.367v11.744c0 8.284 6.729 15 15.029 15h166.857c8.3 0 15.029-6.716 15.029-15v-11.744h27.366v56.643c-8.537 4.694-16.39 10.765-23.297 18.114-33.701 35.854-33.701 92.026 0 127.881 7.019 7.467 15.015 13.615 23.713 18.34-44.111 13.17-80.085 45.316-98.373 86.907h-153.691zm422.806 69.116h-252.143v-6.704c0-69.382 56.556-125.829 126.072-125.829s126.071 56.446 126.071 125.829z"/><path d="m102.262 292.147 30.872-41.812c4.923-6.669 3.498-16.06-3.183-20.974-6.683-4.915-16.09-3.492-21.015 3.177l-18.442 24.979-4.226-6.042c-4.752-6.793-14.121-8.456-20.926-3.713-6.806 4.742-8.471 14.093-3.72 20.886l16.219 23.188c2.772 3.963 7.288 6.351 12.131 6.412.064.001.129.001.193.001 4.77 0 9.262-2.262 12.097-6.102z"/></g><g/><g/><g/><g/><g/><g/><g/><g/><g/><g/><g/><g/><g/><g/><g/></svg>