<svg height="48" viewBox="0 0 96 96" width="48" xmlns="http://www.w3.org/2000/svg"><g data-name="Verification"><rect fill="#b3c4f3" height="87.3" rx="4.52" width="62.83" x="3.64" y="7.71"/><path d="M73.22 19.07v65.05a4.6 4.6 0 0 1-4.6 4.6H15a4.61 4.61 0 0 1-4.61-4.6V5.61A4.61 4.61 0 0 1 15 1c43.78 0 40.83-.17 42.08.41s.49.08 14.8 14.4a4.54 4.54 0 0 1 1.34 3.26" fill="#d2ddf2"/><path d="M15.38 83.72V6.01H55l13.22 13.23v64.48z" fill="#e6ecf2"/><rect fill="#fff" height="36.45" rx="3.5" width="40.64" x="20.3" y="20.77"/><rect fill="#fff" height="9.85" rx="3.5" width="40.64" x="20.3" y="64.55"/><path d="M73.22 19.07c0 .14 1.41.09-18.15.09C55.07-.39 55 1 55.17 1a4.56 4.56 0 0 1 3.24 1.34c14.52 14.54 13.9 13.74 14.4 14.81a4.6 4.6 0 0 1 .41 1.92" fill="#d2ddf2"/><path d="M57.07 1.42v15.74h15.74c-.49-1.06.12-.29-14.4-14.81a4.8 4.8 0 0 0-1.34-.93" fill="#b3c4f3"/><path d="M61.64 32.37H29.21a1 1 0 0 1 0-2h32.43a1 1 0 1 1 0 2m0 7.22H29.21a1 1 0 0 1 0-2h32.43a1 1 0 0 1 0 2M47.67 46.8H29.21a1 1 0 1 1 0-2h18.46a1 1 0 0 1 0 2M61.64 54H29.21a1 1 0 0 1 0-2h32.43a1 1 0 0 1 0 2m0 14.45H29.21a1 1 0 1 1 0-2h32.43a1 1 0 0 1 0 2M40.9 75.66H29.21a1 1 0 0 1 0-2H40.9a1 1 0 1 1 0 2m-2.13-14.43h-9.56a1 1 0 0 1 0-2h9.56a1 1 0 0 1 0 2M23.72 34.79H20.2a2.34 2.34 0 0 1-2.34-2.33v-2.17A2.33 2.33 0 0 1 20.2 28h3.52a2.33 2.33 0 0 1 2.33 2.33v2.17a2.33 2.33 0 0 1-2.33 2.29M20.2 30a.34.34 0 0 0-.34.33v2.17a.34.34 0 0 0 .34.33h3.52a.33.33 0 0 0 .33-.33v-2.21a.33.33 0 0 0-.33-.33zm3.52 19.22H20.2a2.34 2.34 0 0 1-2.34-2.33v-2.17a2.34 2.34 0 0 1 2.34-2.34h3.52a2.33 2.33 0 0 1 2.33 2.34v2.17a2.33 2.33 0 0 1-2.33 2.33m-3.52-4.84a.34.34 0 0 0-.34.34v2.17a.34.34 0 0 0 .34.33h3.52a.33.33 0 0 0 .33-.33v-2.17a.33.33 0 0 0-.33-.34zm3.52 19.27H20.2a2.34 2.34 0 0 1-2.34-2.34v-2.16a2.34 2.34 0 0 1 2.34-2.34h3.52a2.33 2.33 0 0 1 2.33 2.34v2.16a2.33 2.33 0 0 1-2.33 2.34m-3.52-4.84a.34.34 0 0 0-.34.34v2.16a.34.34 0 0 0 .34.34h3.52a.33.33 0 0 0 .33-.34v-2.16a.33.33 0 0 0-.33-.34zm3.52 19.27H20.2a2.34 2.34 0 0 1-2.34-2.34v-2.16a2.34 2.34 0 0 1 2.34-2.34h3.52a2.33 2.33 0 0 1 2.33 2.34v2.16a2.33 2.33 0 0 1-2.33 2.34m-3.52-4.84a.34.34 0 0 0-.34.34v2.16a.34.34 0 0 0 .34.34h3.52a.33.33 0 0 0 .33-.34v-2.16a.33.33 0 0 0-.33-.34z" fill="#3c3264"/><path d="M91.86 87.79 87.69 92a1.76 1.76 0 0 1-2.49 0c-9.84-9.83-8.43-8.44-11.37-11.38a1.74 1.74 0 0 1 0-2.48L78 73.93a1.76 1.76 0 0 1 2.49 0L91.86 85.3a1.77 1.77 0 0 1 0 2.49" fill="#fe4a55"/><path d="m78.17 73.78-4.49 4.5-5.34-5.34a19 19 0 0 0 4.5-4.49z" fill="#f0824b"/><circle cx="57.2" cy="57.3" fill="#e9ecef" r="12.72"/><path d="M57.2 67a9.72 9.72 0 1 1 9.72-9.72A9.72 9.72 0 0 1 57.2 67" fill="#fff"/><path d="M70.78 43.72a19.21 19.21 0 1 0 0 27.16 19.21 19.21 0 0 0 0-27.16m-4.59 22.57a12.72 12.72 0 1 1 0-18 12.72 12.72 0 0 1 0 18" fill="#ffca6e"/><path d="M53.09 43.14a3.24 3.24 0 0 0-4.7-2.9 19.1 19.1 0 0 0-9.1 10.15 3.25 3.25 0 0 0 3 4.41 3.21 3.21 0 0 0 3-2 12.65 12.65 0 0 1 6-6.74 3.24 3.24 0 0 0 1.8-2.92" fill="#ffe391"/><path d="M61.31 71.46a3.24 3.24 0 0 0 4.7 2.9 19.17 19.17 0 0 0 9.1-10.14 3.26 3.26 0 0 0-3-4.42 3.22 3.22 0 0 0-3 2.06 12.65 12.65 0 0 1-6 6.73 3.22 3.22 0 0 0-1.8 2.87" fill="#ffa64d"/><path d="m82.26 89.044 6.66-6.66 1.414 1.414-6.66 6.66zm4.62-8.724-6.66 6.66-1.41-1.42 6.65-6.65zm-11.5 1.755 6.663-6.653 1.414 1.416-6.662 6.653z" fill="#e61f34"/><path d="m54.79 61.8-3.24-3.75a1 1 0 0 1 1.51-1.31l2.52 2.92 6.49-6.89a1 1 0 0 1 1.46 1.37l-7.25 7.7a1 1 0 0 1-1.49-.04" fill="#3ab67d"/></g></svg>
