<svg id="hand-of-god" enable-background="new 0 0 300 300" height="512" viewBox="0 0 300 300" width="512" xmlns="http://www.w3.org/2000/svg"><g><circle cx="168.25" cy="136.164" fill="#e5efef" r="86"/><g fill="#4c241d"><path d="m219.09 77.389c-7.719 0-14-6.281-14-14s6.281-14 14-14 14 6.281 14 14-6.281 14-14 14zm0-20c-3.309 0-6 2.691-6 6s2.691 6 6 6 6-2.691 6-6-2.691-6-6-6z"/><path d="m98.969 223.643c-1.023 0-2.047-.391-2.828-1.172l-12-12c-1.562-1.562-1.562-4.094 0-5.656s4.094-1.562 5.656 0l12 12c1.562 1.562 1.562 4.094 0 5.656-.781.781-1.804 1.172-2.828 1.172z"/><path d="m86.969 223.643c-1.023 0-2.047-.391-2.828-1.172-1.562-1.562-1.562-4.094 0-5.656l12-12c1.562-1.562 4.094-1.562 5.656 0s1.562 4.094 0 5.656l-12 12c-.781.781-1.804 1.172-2.828 1.172z"/><circle cx="143.364" cy="205.419" r="4.276"/><circle cx="119.049" cy="35.419" r="4.276"/><path d="m69.522 53.133c-2.209 0-4-1.791-4-4v-8c0-2.209 1.791-4 4-4s4 1.791 4 4v8c0 2.209-1.791 4-4 4z"/><path d="m69.522 77.133c-2.209 0-4-1.791-4-4v-8c0-2.209 1.791-4 4-4s4 1.791 4 4v8c0 2.209-1.791 4-4 4z"/><path d="m61.522 61.133h-8c-2.209 0-4-1.791-4-4s1.791-4 4-4h8c2.209 0 4 1.791 4 4s-1.791 4-4 4z"/><path d="m85.522 61.133h-8c-2.209 0-4-1.791-4-4s1.791-4 4-4h8c2.209 0 4 1.791 4 4s-1.791 4-4 4z"/></g><path d="m156.056 169.249 64.503-61.809 4.44.93-3.601 54.521-47.388 9.368z" fill="#ffded5"/><g><path d="m147.088 178.883-28-20c-19.973 3.329-64.878-.423-79.385-3.119-2.676-.497-4.615-2.827-4.615-5.548 0-3.59 3.285-6.269 6.795-5.519 25.801 5.516 69.205-1.815 69.205-1.815-16.876 0-40.845-4.264-54.257-6.831-4.435-.849-6.566-5.935-4.061-9.692 1.353-2.03 3.784-3.069 6.198-2.714 76.193 11.192 115.123-12.365 115.123-12.365l-43.03-3.6c-6.738-.449-11.973-6.045-11.973-12.798h52c36 0 52 12 52 12" fill="#ffded5"/><path d="m147.084 182.883c-.805 0-1.617-.242-2.32-.744l-26.678-19.057c-21.615 3.039-65.102-.783-79.115-3.385-4.566-.848-7.883-4.836-7.883-9.48 0-2.932 1.305-5.668 3.578-7.508 2.266-1.83 5.197-2.537 8.053-1.924 8.223 1.758 18.416 2.158 28.348 1.895-4.705-.787-9.697-1.686-14.988-2.697-3.402-.652-6.23-2.947-7.568-6.139-1.338-3.193-.99-6.82.932-9.703 2.191-3.287 6.146-5.043 10.107-4.451 47.732 7.008 80.691.053 98.072-5.771l-26.895-2.25c-8.74-.582-15.639-7.957-15.639-16.785 0-2.209 1.791-4 4-4h52c36.908 0 53.703 12.277 54.4 12.801 1.768 1.324 2.125 3.832.799 5.6-1.324 1.766-3.824 2.133-5.6.799-.137-.1-15.639-11.199-49.6-11.199h-47.037c1.375 2.686 4.086 4.596 7.275 4.809l43.098 3.604c1.727.145 3.164 1.385 3.561 3.072s-.34 3.439-1.824 4.336c-1.639.994-41.033 24.186-117.775 12.9-.896-.129-1.803.25-2.287.975-.621.932-.354 1.83-.209 2.174.143.342.596 1.162 1.693 1.373 23.438 4.484 41.439 6.758 53.506 6.758 2.08 0 3.812 1.594 3.986 3.666s-1.27 3.932-3.32 4.277c-1.803.307-44.463 7.396-70.707 1.783-.652-.143-1.129.139-1.35.32-.229.184-.609.596-.609 1.287 0 .791.564 1.469 1.344 1.613 13.559 2.521 58.227 6.398 77.998 3.107 1.045-.18 2.121.074 2.982.689l28 20c1.799 1.285 2.215 3.783.932 5.58-.781 1.093-2.012 1.675-3.26 1.675z" fill="#4c241d"/></g><g><path d="m134.017 158.669s-8.468.706-16.468-3.294l9.101-24.727c1.54-4.31.782-9.593-3.562-11.766l-23.608 40c-1.164 2.134-.069 4.798 2.259 5.496l37.349 10.504" fill="#ffded5"/><path d="m139.09 178.885c-.357 0-.723-.049-1.084-.15l-37.35-10.504c-2.34-.703-4.158-2.352-5.059-4.543s-.766-4.643.369-6.721l23.676-40.117c1.068-1.812 3.354-2.479 5.234-1.545 6.406 3.203 7.637 10.82 5.541 16.689l-7.789 21.158c5.744 1.912 11.012 1.535 11.068 1.529 2.166-.219 4.125 1.469 4.301 3.666.178 2.197-1.451 4.123-3.648 4.307-.387.033-9.684.75-18.59-3.701-1.822-.912-2.668-3.047-1.965-4.959l9.102-24.727c.268-.752.51-1.871.482-3.008l-20.273 34.348 37.064 10.424c2.127.6 3.367 2.809 2.77 4.934-.497 1.766-2.101 2.918-3.849 2.92z" fill="#4c241d"/></g><path d="m232.637 147.166-2.471 78.105-24.879-47.777-.571-12.369 19.833-2.35z" fill="#9dc1e4"/><g><path d="m223.088 164.164c-24 0-41.398 10.533-41.398 10.533-13.237 8.465-34.763 11.535-34.763 11.535l-15.838-11.349 3.681-29.449c.182-1.457 1.421-2.551 2.89-2.551h2.613c1.555 0 2.816 1.261 2.816 2.816l1.405 20.857 7.474 2.541" fill="#ffded5"/><path d="m146.926 190.233c-.832 0-1.646-.26-2.33-.748l-15.838-11.35c-1.191-.855-1.82-2.293-1.639-3.748l3.68-29.449c.436-3.453 3.383-6.055 6.859-6.055h2.613c3.758 0 6.816 3.059 6.816 6.816l1.215 17.926 4.951 1.684c2.092.711 3.211 2.982 2.5 5.074-.713 2.092-2.98 3.205-5.074 2.5l-7.475-2.541c-1.529-.52-2.596-1.908-2.703-3.518l-1.344-19.941h-.541l-3.266 26.135 12.562 9.002c5.053-.871 21.264-4.068 31.621-10.691.832-.506 18.723-11.164 43.553-11.164 2.209 0 4 1.791 4 4s-1.791 4-4 4c-22.621 0-39.162 9.855-39.326 9.955-13.727 8.779-35.357 11.943-36.271 12.072-.186.027-.375.041-.563.041zm-7.828-44.264c-.002.025 0 .051.004.078z" fill="#4c241d"/></g><g><path d="m202.79 168.243c3.422 23.761 14.76 96.149 32.617 96.613 21.662.563 29.506-157.837 29.506-157.837h-40.422s-6.916 84.532 6.916 110.811" fill="#9dc1e4"/><path d="m235.582 268.858c-.094 0-.188 0-.279-.004-5.479-.143-22.148-.576-36.473-100.041-.314-2.188 1.203-4.215 3.389-4.529 2.172-.291 4.215 1.203 4.529 3.389 9.863 68.484 21.658 93 28.762 93.186h.002c.133 0 10.008-.742 18.799-75.18 3.725-31.537 5.736-63.451 6.377-74.66h-32.477c-1.111 16.408-4.805 83.025 6.734 104.949 1.029 1.955.279 4.373-1.676 5.402-1.953 1.033-4.375.283-5.402-1.676-14.211-26.998-7.65-109.504-7.363-113.002.17-2.076 1.904-3.674 3.986-3.674h40.422c1.096 0 2.143.449 2.898 1.242.754.793 1.15 1.861 1.096 2.955-.02.398-2.02 40.189-6.652 79.402-8.509 72.065-18.238 82.241-26.672 82.241z" fill="#4c241d"/></g><path d="m211.313 134.051c-9.705 0-18.576-3.605-26.064-10.678-1.605-1.518-1.68-4.049-.162-5.654 1.52-1.611 4.049-1.678 5.654-.162 8.193 7.742 18.061 10.213 29.342 7.342 2.139-.553 4.318.748 4.863 2.891.545 2.141-.75 4.318-2.891 4.863-3.67.933-7.262 1.398-10.742 1.398z" fill="#4c241d"/></g></svg>