<svg height="48" viewBox="0 0 68 68" width="48" xmlns="http://www.w3.org/2000/svg"><path d="M13.49 38.81a.75.75 0 0 1-.74-.63c-1.52-9.65.52-19.97 5.6-28.32a.76.76 0 0 1 1.03-.25c.35.22.47.68.25 1.03-4.9 8.05-6.87 18-5.4 27.3.06.41-.21.79-.62.86-.04 0-.08.01-.12.01" fill="#1a1d1f"/><path d="M14.46 23.9c-.24.04-.49.03-.74-.03a1.88 1.88 0 0 1-1.39-2.26 44 44 0 0 1 2.13-6.56c.4-.96 1.5-1.41 2.46-1.02.96.4 1.41 1.5 1.01 2.45-.8 1.93-1.45 3.94-1.94 5.99-.19.77-.81 1.31-1.53 1.43" fill="#ffc776"/><path d="M17.92 16.49c-.8 1.93-1.46 3.94-1.95 5.99-.18.75-.8 1.3-1.52 1.42-.24.04-.5.03-.74-.03-.32-.08-.61-.23-.84-.45.68-.15 1.24-.67 1.41-1.39.49-2.04 1.15-4.06 1.95-5.99.31-.74.1-1.58-.46-2.1.37-.08.76-.06 1.14.09.95.41 1.41 1.5 1.01 2.46" fill="#f4b25b"/><path d="M14.15 24.67a2.62 2.62 0 0 1-2.25-1.25c-.37-.6-.48-1.3-.32-1.99.54-2.28 1.27-4.52 2.16-6.67.56-1.34 2.1-1.98 3.44-1.42s1.98 2.1 1.42 3.43c-.79 1.89-1.43 3.87-1.91 5.88a2.62 2.62 0 0 1-2.13 1.98c-.12.03-.26.04-.41.04m2.04-10.03c-.44 0-.86.26-1.04.7a43.6 43.6 0 0 0-2.09 6.44c-.07.29-.02.6.14.85.16.26.41.44.7.51a1.11 1.11 0 0 0 1.36-.83c.5-2.08 1.17-4.14 1.98-6.1a1.14 1.14 0 0 0-1.05-1.57m32.36 19.65h-.01a.76.76 0 0 1-.74-.76c.18-10.86-3.68-21.91-10.56-30.3a.76.76 0 0 1 .1-1.06c.32-.26.79-.22 1.06.1 7.11 8.67 11.09 20.07 10.91 31.28-.01.41-.35.74-.76.74" fill="#1a1d1f"/><path d="M45.17 17.57c.28.01.57-.04.84-.15a2.16 2.16 0 0 0 1.22-2.8c-.97-2.46-2.14-4.86-3.48-7.13-.61-1.03-1.93-1.37-2.96-.76s-1.37 1.93-.76 2.96c1.22 2.07 2.29 4.26 3.18 6.51.33.83 1.12 1.35 1.96 1.37" fill="#ffc776"/><path d="M40.04 9.69c1.22 2.07 2.29 4.26 3.18 6.51.33.83 1.12 1.35 1.96 1.37.28.01.57-.05.84-.15.36-.14.66-.36.88-.64-.79-.06-1.52-.56-1.83-1.36-.89-2.24-1.96-4.44-3.18-6.51-.47-.8-.37-1.78.19-2.47-.43-.04-.88.05-1.28.29a2.156 2.156 0 0 0-.76 2.96" fill="#f4b25b"/><path d="M45.23 18.32h-.07a2.91 2.91 0 0 1-2.64-1.84c-.87-2.21-1.92-4.37-3.13-6.4-.82-1.38-.36-3.17 1.02-3.99s3.17-.36 3.99 1.03c1.36 2.3 2.55 4.73 3.53 7.23.29.72.27 1.51-.04 2.23-.31.71-.88 1.26-1.6 1.55-.34.12-.7.19-1.06.19M41.89 7.18c-.24 0-.49.06-.71.2-.67.4-.89 1.26-.5 1.93a46.6 46.6 0 0 1 3.23 6.62c.21.53.71.88 1.28.89.19.01.37-.03.55-.1.35-.14.63-.4.78-.75s.16-.73.02-1.08a49 49 0 0 0-3.43-7.02c-.26-.44-.73-.69-1.22-.69m7.69 27.11c-.04 0-.08 0-.11-.01a.75.75 0 0 1-.63-.85c1.7-11.08 7.52-21.66 15.98-29.01.31-.27.79-.24 1.06.07s.24.79-.07 1.06c-8.2 7.13-13.84 17.37-15.49 28.11-.05.37-.37.63-.74.63" fill="#1a1d1f"/><path d="M55.59 18.36c-.28-.04-.55-.14-.81-.29a2.164 2.164 0 0 1-.73-2.97 50 50 0 0 1 4.62-6.44c.77-.91 2.13-1.03 3.05-.26.91.77 1.03 2.13.26 3.04a46.4 46.4 0 0 0-4.22 5.89c-.48.77-1.34 1.15-2.17 1.03" fill="#ffc776"/><path d="M61.97 11.45a46 46 0 0 0-4.22 5.89c-.46.76-1.33 1.14-2.16 1.02-.28-.04-.56-.14-.8-.29a2.1 2.1 0 0 1-.76-.78c.79.07 1.59-.3 2.03-1.03 1.25-2.06 2.67-4.05 4.22-5.89.6-.71.66-1.69.23-2.46.43.04.85.2 1.21.5.9.77 1.02 2.13.25 3.04" fill="#f4b25b"/><path d="M55.9 19.13q-.21 0-.42-.03c-.38-.06-.75-.19-1.09-.39a2.92 2.92 0 0 1-.99-4c1.39-2.3 2.97-4.5 4.69-6.54 1.04-1.22 2.88-1.38 4.1-.34a2.905 2.905 0 0 1 .34 4.1c-1.52 1.8-2.92 3.75-4.15 5.79a2.86 2.86 0 0 1-2.48 1.41m4.42-10.48c-.4 0-.8.17-1.08.5-1.67 1.98-3.2 4.11-4.55 6.35a1.413 1.413 0 0 0 2.42 1.46c1.27-2.11 2.72-4.12 4.29-5.98.5-.59.43-1.49-.17-1.99-.26-.24-.59-.34-.91-.34" fill="#1a1d1f"/><path d="M42.38 35.25c.9-3.79-.34-7.59-2.94-10.13-.59-.58-.08-1.59.73-1.4.01 0 .02 0 .03.01 5.75 1.36 9.31 7.13 7.95 12.89z" fill="#77e244"/><path d="M48.23 36.18q-.03.225-.09.45l-5.76-1.37c.9-3.79-.34-7.59-2.94-10.13-.59-.58-.08-1.59.73-1.4.01 0 .02.01.03.01.38.09.75.2 1.11.32-.2.31-.21.75.11 1.07a10.69 10.69 0 0 1 2.94 10.13z" fill="#62d333"/><path d="M48.14 37.37a1 1 0 0 1-.17-.02l-5.77-1.37c-.4-.09-.65-.5-.56-.9.81-3.43-.21-6.95-2.73-9.42-.52-.5-.63-1.27-.28-1.9.34-.62 1.02-.92 1.7-.76 3.01.71 5.53 2.54 7.14 5.14s2.1 5.68 1.4 8.66c-.05.19-.17.36-.34.47-.11.06-.25.1-.39.1m-4.88-2.68 4.3 1.02c.38-2.35-.1-4.74-1.36-6.79a9.9 9.9 0 0 0-6.18-4.46l-.09.05c2.75 2.73 3.96 6.47 3.33 10.18" fill="#1a1d1f"/><path d="M39.31 39.43c0-4.86-2.6-9.11-6.48-11.45-.88-.53-.55-1.9.48-1.9h.04c7.37 0 13.35 5.98 13.35 13.35z" fill="#77e244"/><path d="M46.7 39.43h-2.09c-.34-6.69-5.6-12.08-12.25-12.61.1-.41.44-.74.95-.74h.04c7.37 0 13.35 5.97 13.35 13.35" fill="#62d333"/><path d="M46.7 40.18h-7.39c-.41 0-.75-.34-.75-.75 0-4.46-2.29-8.5-6.12-10.8-.7-.42-1.02-1.23-.81-2.02.21-.76.88-1.28 1.67-1.28 7.82 0 14.14 6.33 14.14 14.1.01.41-.32.75-.74.75m-6.66-1.5h5.89c-.39-6.6-5.88-11.85-12.58-11.85-.08 0-.22 0-.27.18-.02.07-.04.23.13.33 4.08 2.45 6.59 6.64 6.83 11.34" fill="#1a1d1f"/><path d="M58.3 29.16a11.95 11.95 0 0 0-5.81 10.26h-6.62c0-6.61 5.36-11.97 11.96-11.97h.03c.93.01 1.23 1.24.44 1.71" fill="#77e244"/><path d="M58.72 28.6c-5.78.46-10.41 5.05-10.94 10.82h-1.92c0-6.61 5.36-11.97 11.97-11.97h.04c.66.01.99.63.85 1.15" fill="#62d333"/><path d="M52.49 40.18h-6.62c-.41 0-.75-.34-.75-.75 0-7.01 5.7-12.72 12.71-12.72.78 0 1.41.48 1.61 1.2.2.74-.1 1.5-.76 1.9a11.14 11.14 0 0 0-5.44 9.62c0 .41-.34.75-.75.75m-5.85-1.5h5.12c.24-4.21 2.5-7.96 6.15-10.16.11-.06.1-.16.08-.21-.03-.1-.09-.1-.13-.1-5.96 0-10.83 4.63-11.22 10.47" fill="#1a1d1f"/><path d="M19.11 41.95c-.65-4.57 1.22-8.91 4.56-11.63.76-.62.26-1.86-.71-1.73-.01 0-.02 0-.04.01-6.92.99-11.74 7.41-10.75 14.34z" fill="#77e244"/><path d="m12.16 42.94 1.97-.28c-.57-6.33 3.65-12.11 9.82-13.49a.91.91 0 0 0-.99-.57l-.04.01C16 29.59 11.18 36 12.16 42.94" fill="#62d333"/><path d="M12.16 43.69c-.37 0-.69-.27-.74-.64-1.04-7.33 4.07-14.14 11.4-15.18.79-.11 1.51.29 1.82.99.32.73.12 1.55-.5 2.05a11.86 11.86 0 0 0-4.29 10.94.745.745 0 0 1-.63.85l-6.95.99c-.03-.01-.07 0-.11 0m10.95-14.36h-.04c-6.29.9-10.74 6.53-10.24 12.75l5.46-.78c-.39-4.44 1.42-8.72 4.91-11.57a.24.24 0 0 0 .07-.29c-.05-.09-.11-.11-.16-.11" fill="#1a1d1f"/><path d="M3.23 34.37a11.34 11.34 0 0 1 6.83 8.87l6.23-.89c-.89-6.21-6.64-10.53-12.85-9.65h-.03c-.87.13-.99 1.32-.18 1.67" fill="#77e244"/><path d="M2.75 33.9c5.5-.34 10.46 3.36 11.73 8.71l1.81-.26c-.89-6.21-6.65-10.53-12.85-9.65l-.04.01c-.62.08-.85.71-.65 1.19" fill="#62d333"/><path d="M10.06 43.99c-.37 0-.69-.27-.74-.64-.53-3.72-2.91-6.82-6.38-8.29-.69-.29-1.08-.98-.99-1.72.09-.72.63-1.27 1.35-1.37 6.64-.95 12.79 3.67 13.73 10.28a.745.745 0 0 1-.63.85l-6.23.89c-.04-.01-.08 0-.11 0M3.52 33.68c3.72 1.57 6.35 4.8 7.15 8.72l4.74-.67c-1.16-5.4-6.32-9.05-11.87-8.28-.06.01-.1.01-.11.08 0 .07.02.12.09.15" fill="#1a1d1f"/><path d="M65.18 48.33c0 5.5-8.92 10.14-21.16 11.66-.96.12-1.86.48-2.64 1.03-3.59 2.53-10.3 4.23-17.97 4.23-11.45 0-20.72-3.78-20.72-8.46 0-1.12.53-2.2 1.51-3.18 1.21-1.22 1.55-2.99 1.35-4.7-.02-.2-.04-.39-.04-.59 0-6.72 13.36-12.17 29.84-12.17 16.47 0 29.83 5.46 29.83 12.18" fill="#6cf"/><path d="M65.18 48.33c0 5.5-8.92 10.14-21.16 11.66-.96.12-1.85.48-2.64 1.04-3.59 2.52-10.3 4.22-17.97 4.22-5.41 0-10.32-.84-14.01-2.22 1.79.21 3.68.32 5.64.32 7.67 0 14.38-1.7 17.97-4.22.79-.56 1.68-.92 2.64-1.04 12.24-1.52 21.16-6.16 21.16-11.66 0-3.88-4.45-7.33-11.37-9.55 11.51 1.68 19.74 6.18 19.74 11.45" fill="#42c1f4"/><path d="M23.41 66c-12.04 0-21.47-4.04-21.47-9.21 0-1.31.58-2.55 1.72-3.71 1.26-1.27 1.25-3.1 1.14-4.08-.03-.23-.04-.46-.04-.68 0-7.25 13.44-12.92 30.59-12.92s30.59 5.68 30.59 12.92c0 5.8-8.77 10.79-21.82 12.41-.82.1-1.6.41-2.3.9C37.98 64.33 30.93 66 23.41 66m11.93-29.1c-15.77 0-29.09 5.23-29.09 11.42 0 .17.01.34.03.5.26 2.15-.3 4.04-1.56 5.31-.86.86-1.29 1.75-1.29 2.65 0 4.18 9.15 7.71 19.97 7.71 7.23 0 13.95-1.57 17.54-4.09.9-.63 1.93-1.04 2.98-1.17 12.07-1.5 20.51-5.99 20.51-10.92 0-6.18-13.32-11.41-29.09-11.41" fill="#1a1d1f"/><path d="M31.22 55.3c0 2.04-3.82 3.69-8.5 3.69-4.69 0-8.49-1.65-8.49-3.69s3.8-3.7 8.49-3.7 8.5 1.66 8.5 3.7" fill="#9f6"/><path d="M22.72 59.75c-5.27 0-9.24-1.91-9.24-4.44 0-2.54 3.97-4.46 9.24-4.46 5.28 0 9.25 1.92 9.25 4.46 0 2.53-3.98 4.44-9.25 4.44m0-7.4c-4.43 0-7.74 1.56-7.74 2.96 0 1.39 3.31 2.94 7.74 2.94 4.44 0 7.75-1.55 7.75-2.94 0-1.4-3.31-2.96-7.75-2.96" fill="#1a1d1f"/><path d="M16.12 44.77c-.12 0-.23-.06-.31-.16a.37.37 0 0 1 .09-.52c2.54-1.79 6.6-3.1 11.41-3.67.2-.02.39.12.42.33a.38.38 0 0 1-.33.42c-4.63.55-8.66 1.85-11.07 3.54-.06.04-.14.06-.21.06" fill="#fff"/><path d="M65.18 57.68c0 2.84-3.49 5.14-7.79 5.14s-7.79-2.3-7.79-5.14c0-2.83 3.49-5.13 7.79-5.13s7.79 2.3 7.79 5.13" fill="#666"/><path d="M65.18 57.68c0 2.84-3.49 5.14-7.79 5.14-3.53 0-6.52-1.56-7.46-3.69 1.18.49 2.57.75 4.05.75 4.3 0 7.79-2.3 7.79-5.14 0-.5-.11-.98-.32-1.43 2.23.89 3.73 2.52 3.73 4.37" fill="#595857"/><path d="M57.39 63.57c-4.71 0-8.54-2.64-8.54-5.89 0-3.24 3.83-5.88 8.54-5.88s8.54 2.64 8.54 5.88c0 3.25-3.83 5.89-8.54 5.89m0-10.27c-3.81 0-7.04 2.01-7.04 4.38 0 2.38 3.22 4.39 7.04 4.39s7.04-2.01 7.04-4.39-3.23-4.38-7.04-4.38" fill="#1a1d1f"/><path d="M54.51 60.94c0 2.38-2.92 4.31-6.52 4.31s-6.52-1.93-6.52-4.31c0-2.37 2.92-4.3 6.52-4.3s6.52 1.93 6.52 4.3" fill="#666"/><path d="M54.51 60.94c0 2.38-2.92 4.31-6.52 4.31-2.96 0-5.46-1.31-6.25-3.09.99.41 2.15.63 3.39.63 3.6 0 6.52-1.93 6.52-4.31q0-.63-.27-1.2c1.88.75 3.13 2.11 3.13 3.66" fill="#595857"/><path d="M47.99 66c-4.08 0-7.27-2.22-7.27-5.06 0-2.83 3.2-5.05 7.27-5.05s7.27 2.22 7.27 5.05c0 2.84-3.2 5.06-7.27 5.06m0-8.61c-3.13 0-5.77 1.63-5.77 3.55 0 1.93 2.64 3.56 5.77 3.56s5.77-1.63 5.77-3.56c0-1.92-2.64-3.55-5.77-3.55M34.61 42.83h-2.25c-.41 0-.75-.34-.75-.75s.34-.75.75-.75h2.25a.749.749 0 1 1 0 1.5m3.21 9.52h-2.25c-.41 0-.75-.34-.75-.75s.34-.75.75-.75h2.25c.41 0 .75.34.75.75s-.34.75-.75.75m-11.17-5.74H24.4c-.41 0-.75-.34-.75-.75s.34-.75.75-.75h2.25a.749.749 0 1 1 0 1.5m-11.52 2.96h-2.25c-.41 0-.75-.34-.75-.75s.34-.75.75-.75h2.25c.41 0 .75.34.75.75s-.34.75-.75.75m30.82-4.42H43.7c-.41 0-.75-.34-.75-.75s.34-.75.75-.75h2.25a.749.749 0 1 1 0 1.5m10.32-1.16h-2.25c-.41 0-.75-.34-.75-.75s.34-.75.75-.75h2.25c.41 0 .75.34.75.75s-.34.75-.75.75m-4.42 6.41H49.6c-.41 0-.75-.34-.75-.75s.34-.75.75-.75h2.25c.41 0 .75.34.75.75s-.34.75-.75.75" fill="#1a1d1f"/></svg>
