<svg id="Capa_1" enable-background="new 0 0 512 512" height="512" viewBox="0 0 512 512" width="512" xmlns="http://www.w3.org/2000/svg"><g><path d="m391 121.537c-33.591 6.961-60 37.517-60 74.463 0 41.355 33.645 75 75 75s75-33.645 75-75c0-36.931-26.394-67.499-60-74.463v-31.537h91v-90h-121zm30-91.537h61v30h-61zm30 166c0 24.813-20.187 45-45 45s-45-20.187-45-45c0-24.935 20.607-46 45-46s45 21.065 45 46z"/><path d="m75 512c41.355 0 75-33.645 75-75 0-36.219-25.808-66.522-60-73.491v-77.509c0-41.355 33.645-75 75-75h84.787l-19.393 19.394 21.213 21.213 55.606-55.607-55.607-55.606-21.213 21.213 19.394 19.393h-84.787c-57.897 0-105 47.103-105 105v77.509c-34.192 6.969-60 37.272-60 73.491 0 41.355 33.645 75 75 75zm0-120c24.813 0 45 20.187 45 45s-20.187 45-45 45-45-20.187-45-45 20.187-45 45-45z"/><path d="m335.394 306.394-34.394 34.393-34.394-34.393-21.212 21.212 34.393 34.394-34.393 34.394 21.212 21.212 34.394-34.393 34.394 34.393 21.212-21.212-34.393-34.394 34.393-34.394z"/><path d="m124.394 5.394-34.394 34.393-34.394-34.393-21.212 21.212 34.393 34.394-34.393 34.394 21.212 21.212 34.394-34.393 34.394 34.393 21.212-21.212-34.393-34.394 34.393-34.394z"/></g></svg>